<svg width="65" height="53" viewBox="0 0 65 53" fill="none" xmlns="http://www.w3.org/2000/svg">
<path d="M25.556 29.4194C25.7929 25.1782 27.8619 21.4417 30.9833 18.793C34.0444 16.1914 38.1646 14.6012 42.6602 14.6012C47.1513 14.6012 51.2715 16.1914 54.3349 18.793C57.4541 21.4417 59.5231 25.1782 59.7621 29.4148C59.999 33.7726 58.254 37.8208 55.1929 40.8217C52.0714 43.8741 47.6317 45.7895 42.6602 45.7895C37.6887 45.7895 33.2401 43.8741 30.1209 40.8217C27.0575 37.8208 25.3169 33.7726 25.556 29.4194Z" fill="white"/>
<path d="M33.8845 29.8C34.006 27.6239 35.0676 25.7066 36.6692 24.3475C38.2399 23.0126 40.354 22.1967 42.6607 22.1967C44.9651 22.1967 47.0792 23.0126 48.6511 24.3475C50.2515 25.7066 51.3132 27.6238 51.4358 29.7977C51.5573 32.0337 50.662 34.1108 49.0913 35.6506C47.4897 37.2168 45.2116 38.1996 42.6607 38.1996C40.1098 38.1996 37.8272 37.2168 36.2267 35.6506C34.6549 34.1108 33.7618 32.0337 33.8845 29.8Z" fill="#265787"/>
<path d="M19.909 34.1972C19.9239 35.0488 20.1945 36.7036 20.6003 37.996C21.4533 40.7314 22.9001 43.262 24.9133 45.4922C26.9793 47.7846 29.5233 49.6258 32.4617 50.9331C35.5503 52.306 38.8969 53.0057 42.373 53C45.8434 52.9954 49.19 52.2818 52.2786 50.8986C55.217 49.5786 57.7587 47.7293 59.8212 45.4358C61.8333 43.1964 63.2778 40.6612 64.1331 37.9258C64.563 36.5437 64.8347 35.1408 64.9437 33.7334C65.0503 32.3467 65.0056 30.9577 64.8095 29.5698C64.4266 26.8655 63.4945 24.328 62.0591 22.0149C60.7464 19.8894 59.0542 18.0286 57.0422 16.4624L57.0467 16.4589L36.7415 0.809272C36.7232 0.795463 36.7083 0.780525 36.6888 0.767866C35.3566 -0.258639 33.1164 -0.255181 31.6512 0.773626C30.1699 1.81394 30.0002 3.53435 31.3187 4.61955L31.313 4.62531L39.782 11.5381L13.9691 11.5657H13.9347C11.8011 11.568 9.75008 12.9731 9.34422 14.7488C8.92691 16.5579 10.376 18.0585 12.5945 18.0665L12.591 18.0746L25.6746 18.0493L2.32779 36.0373C2.29798 36.0591 2.26587 36.0822 2.23836 36.104C0.0359809 37.7969 -0.675963 40.6117 0.711271 42.3931C2.11914 44.2045 5.11259 44.2079 7.33789 42.4035L20.0798 31.9359C20.0798 31.9359 19.8941 33.349 19.909 34.1972ZM52.6511 38.9292C50.0257 41.614 46.3501 43.1365 42.373 43.1446C38.3902 43.1515 34.7145 41.6428 32.0891 38.9626C30.8062 37.6565 29.8638 36.1535 29.2826 34.5528C28.7128 32.9797 28.4915 31.3098 28.6382 29.6251C28.777 27.9783 29.2654 26.4075 30.045 24.9862C30.8108 23.5892 31.8656 22.3268 33.168 21.2588C35.72 19.1713 38.9691 18.0412 42.3673 18.0366C45.7689 18.032 49.0157 19.1517 51.57 21.2324C52.8701 22.2957 53.9237 23.5535 54.6896 24.9483C55.4726 26.3684 55.9576 27.9334 56.102 29.5848C56.2465 31.2673 56.0252 32.9348 55.4554 34.5091C54.873 36.1144 53.934 37.6173 52.6511 38.9292Z" fill="#EA7600"/>
</svg>
