<svg width="36" height="55" viewBox="0 0 36 55" fill="none" xmlns="http://www.w3.org/2000/svg">
<path d="M18 27.5C18 25.0688 18.9482 22.7373 20.636 21.0182C22.3239 19.2991 24.6131 18.3333 27 18.3333C29.3869 18.3333 31.6761 19.2991 33.364 21.0182C35.0518 22.7373 36 25.0688 36 27.5C36 29.9311 35.0518 32.2627 33.364 33.9818C31.6761 35.7009 29.3869 36.6667 27 36.6667C24.6131 36.6667 22.3239 35.7009 20.636 33.9818C18.9482 32.2627 18 29.9311 18 27.5Z" fill="#1ABCFE"/>
<path d="M0 45.8333C0 43.4022 0.948212 41.0706 2.63604 39.3515C4.32387 37.6324 6.61305 36.6667 9 36.6667H18V45.8333C18 48.2645 17.0518 50.5961 15.364 52.3151C13.6761 54.0342 11.3869 55 9 55C6.61305 55 4.32387 54.0342 2.63604 52.3151C0.948212 50.5961 0 48.2645 0 45.8333Z" fill="#0ACF83"/>
<path d="M18 0V18.3333H27C29.3869 18.3333 31.6761 17.3676 33.364 15.6485C35.0518 13.9294 36 11.5978 36 9.16667C36 6.73551 35.0518 4.40394 33.364 2.68485C31.6761 0.965771 29.3869 0 27 0H18Z" fill="#FF7262"/>
<path d="M0 9.16667C0 11.5978 0.948212 13.9294 2.63604 15.6485C4.32387 17.3676 6.61305 18.3333 9 18.3333H18V0H9C6.61305 0 4.32387 0.965771 2.63604 2.68485C0.948212 4.40394 0 6.73551 0 9.16667Z" fill="#F24E1E"/>
<path d="M0 27.5C0 29.9311 0.948212 32.2627 2.63604 33.9818C4.32387 35.7009 6.61305 36.6667 9 36.6667H18V18.3333H9C6.61305 18.3333 4.32387 19.2991 2.63604 21.0182C0.948212 22.7373 0 25.0688 0 27.5Z" fill="#A259FF"/>
</svg>
