<svg width="97" height="105" viewBox="0 0 97 105" fill="none" xmlns="http://www.w3.org/2000/svg">
<g filter="url(#filter0_d_104_73)">
<path d="M2.50004 25.1147L46 50.2295V100.459L2.50004 75.3442L2.50004 25.1147Z" fill="#15B8DD"/>
<path d="M2.50004 25.1147L46 50.2295V100.459L2.50004 75.3442L2.50004 25.1147Z" fill="#15B8DD"/>
<path d="M45.9985 50.2295L89.4985 25.1147V75.3442L45.9985 100.459V50.2295Z" fill="#0FACD9"/>
<path d="M46 0L89.5 25.1147L46 50.2295L2.50004 25.1147L46 0Z" fill="#76DBF3"/>
<path d="M36.5 22L39 23.5L41.5 22L46 25L48.5 23.5L51 25L56 22L53.5 21L56 19.5L48.5 15L46 16.5L43.5 15L41 16.5L36.5 13.5L27 19.5L34 23.5L36.5 22Z" fill="#E3F5F9"/>
<path d="M53.5 21L56 19.5V22V25L51 28L48.5 26.5L46 28L41.5 25L39 26.5L36.5 25L34 26.5L27 22V19.5L34 23.5L36.5 22L39 23.5L41.5 22L46 25L48.5 23.5L51 25L56 22L53.5 21Z" fill="#CAE6EC"/>
<path d="M43.5 34.5L39 32L41.5 30.5L39 29L36.5 30.5L34 29L29 32L31.5 33.5L29.5 34.5L36.5 38.5L43.5 34.5Z" fill="#E3F5F9"/>
<path d="M41.5 30.5V33.3996L43.5 34.5V37.5L36.5 41.5L29.5 37.5L29 37V32L31.5 33.5L29.5 34.5L36.5 38.5L43.5 34.5L41.5 33.3996L39 32L41.5 30.5Z" fill="#CAE6EC"/>
<path d="M53 1L92.5 23.5L82.5 29L73 23.5L75 22L70.5 19.5L73 18L70.5 16.5L68 18L63 15.5L65.5 14L56 8.5L53.5 10L41.5 2.5L39 4L36.5 2.5L39 1L41.5 2.5L44 1L46.5 2.5L48.5 1L51 2.5L53 1Z" fill="#B2D231"/>
<path d="M82.5 29L80 30.5L73 26.5V23.5L70.5 22.5V19.5L68 21L63 18V15.5L56 11L53.5 12.5L41.5 5.5L39 7L36.5 6V2.5L39 4L41.5 2.5L53.5 10L56 8.5L65.5 14L63 15.5L68 18L70.5 16.5L73 18L70.5 19.5L75 22L73 23.5L82.5 29Z" fill="#52AE40"/>
<path d="M65.5 63.5V55.5L68 54V51.5L70.5 50V47L82.5 40.5V46L85 44.5V47L87.5 45.5V43L85 44V39L90 36V33.5L80.5 38.5V36L82.5 35V29L92.5 23.5V34.5L90 36V39L92.5 37.5V57L90 58V63.5L87.5 65V70.5L85 72V75L80 77.5V75L77.5 76V65L73 67.5V62L68 65V62.5L65.5 63.5Z" fill="#419E4D"/>
<path d="M77.5 40.5V35L75.5 36V41.5L77.5 40.5Z" fill="#419E4D"/>
<path d="M80 75V77.5L77.5 76L75.5 75V66.1191L73 67.5L70.5 66.5V63.5L73 62V67.5L75.5 66.1191L77.5 65V76L80 75Z" fill="#1F6B3D"/>
<path d="M68 62.5V65L65.5 63.5L63 62.5V54L65.5 53V50L68 48.5V45.5L75.5 41.6L73 40V34.5L75.5 33.5L77.5 35L80 33.5V30.5L82.5 29V35L80.5 36V38.5L77.5 37.5V35L75.5 36V41.6L80.5 39L82.5 40.5V37.5L90 33.5V36L92.5 37.5L90 39V36L85 39V44L87.5 43V45.5L85 47V44.5L82.5 45.5V40.5L70.5 47V50L68 51.5V54L65.5 55.5V63.5L68 62.5Z" fill="#1F6B3D"/>
<path d="M34 93L31.5 94V83.5L34 84.5L36.5 85.5V80.5L39 81.5V73.5L27 66.5V63.5L22 61V58L19.5 57V51.5L22 52.5V41.5L24.5 43V37.5L27 36V41.5L24.5 43V51L22 52.5V55L24.5 56.5V59.5L29 62V65L41.5 72.5V80.5L39 81.5V84.5L36.5 85.5L34 84.5V93Z" fill="#3E8A3D"/>
<path d="M0 23.5L24.5 37.5V43L22 41.5V52.5L19.5 51.5V57L22 58V61L27 63.5V66.5L39 73.5V81.5L36.5 80.5V85.5L31.5 83.5V94L24.5 90V84.5L22 83V72L19.5 71V65L16.5 64V57.5L14.5 56.5V54L12 52.5V49.5L7.5 47.5V44.5L5 43V40L2.5 39V36L0 35V23.5Z" fill="#A1CD3A"/>
<path d="M5 76V79L0 76.5V70.5L2.5 72V75L5 76Z" fill="#A1CD3A"/>
<path d="M7 77.5L5 79V76L2.5 75V72L0 70.5L2.5 69.5L4.5 70.5V73.5L7 74.5V77.5Z" fill="#3E8A3D"/>
<path d="M22 33L19.5 31.5L22 30.5L19.5 29L22 28V30.5V33Z" fill="#42A838"/>
<path d="M19.5 23.5V26.5L17 25L19.5 23.5Z" fill="#42A838"/>
<path d="M14.5 18V21L12 19.5L9.5 21L12 22L9.5 23.5V21V18L12 19.5L14.5 18Z" fill="#42A838"/>
<path d="M27 36L24.5 37.5L0 23.5L2 22L5 23.5L7 22L9.5 23.5L12 22L9.5 21L12 19.5L9.5 18L12 16.5L14.5 18L12 19.5L19.5 23.5L17 25L22 28L19.5 29L22 30.5L19.5 31.5L27 36Z" fill="#B7E943"/>
</g>
<defs>
<filter id="filter0_d_104_73" x="0" y="0" width="97" height="104.959" filterUnits="userSpaceOnUse" color-interpolation-filters="sRGB">
<feFlood flood-opacity="0" result="BackgroundImageFix"/>
<feColorMatrix in="SourceAlpha" type="matrix" values="0 0 0 0 0 0 0 0 0 0 0 0 0 0 0 0 0 0 127 0" result="hardAlpha"/>
<feOffset dx="4" dy="4"/>
<feGaussianBlur stdDeviation="0.25"/>
<feComposite in2="hardAlpha" operator="out"/>
<feColorMatrix type="matrix" values="0 0 0 0 0 0 0 0 0 0 0 0 0 0 0 0 0 0 0.25 0"/>
<feBlend mode="normal" in2="BackgroundImageFix" result="effect1_dropShadow_104_73"/>
<feBlend mode="normal" in="SourceGraphic" in2="effect1_dropShadow_104_73" result="shape"/>
</filter>
</defs>
</svg>
