<svg width="677" height="36" viewBox="0 0 677 36" fill="none" xmlns="http://www.w3.org/2000/svg">
<rect width="677" height="36" rx="18" fill="#FFE5AA"/>
<g clip-path="url(#clip0_187_17)">
<path opacity="0.65" d="M27.5205 15.4406H26.8805V14.1606C26.8805 12.3942 25.4469 10.9606 23.6805 10.9606C21.9141 10.9606 20.4805 12.3942 20.4805 14.1606V15.4406H19.8405C19.1365 15.4406 18.5605 16.0166 18.5605 16.7206V23.1206C18.5605 23.8246 19.1365 24.4006 19.8405 24.4006H27.5205C28.2245 24.4006 28.8005 23.8246 28.8005 23.1206V16.7206C28.8005 16.0166 28.2245 15.4406 27.5205 15.4406ZM23.6805 21.2006C22.9765 21.2006 22.4005 20.6246 22.4005 19.9206C22.4005 19.2166 22.9765 18.6406 23.6805 18.6406C24.3845 18.6406 24.9605 19.2166 24.9605 19.9206C24.9605 20.6246 24.3845 21.2006 23.6805 21.2006ZM25.6645 15.4406H21.6965V14.1606C21.6965 13.0662 22.5861 12.1766 23.6805 12.1766C24.7749 12.1766 25.6645 13.0662 25.6645 14.1606V15.4406Z" fill="#362A0E"/>
</g>
<path d="M659.334 15.6984L653.342 15.1817L651 9.66504L648.659 15.19L642.667 15.6984L647.217 19.64L645.85 25.4984L651 22.39L656.15 25.4984L654.792 19.64L659.334 15.6984ZM651 20.8317L647.867 22.7234L648.7 19.1567L645.934 16.7567L649.584 16.44L651 13.0817L652.425 16.4484L656.075 16.765L653.309 19.165L654.142 22.7317L651 20.8317Z" fill="#362A0E"/>
<defs>
<clipPath id="clip0_187_17">
<rect width="15.36" height="15.36" fill="white" transform="translate(16 10.32)"/>
</clipPath>
</defs>
</svg>
