<svg width="83" height="66" viewBox="0 0 83 66" fill="none" xmlns="http://www.w3.org/2000/svg">
<path d="M32.7399 36.6354C33.0387 31.354 35.6489 26.701 39.5867 23.4026C43.4484 20.1628 48.6461 18.1827 54.3175 18.1827C59.9832 18.1827 65.181 20.1628 69.0455 23.4026C72.9805 26.701 75.5906 31.354 75.8922 36.6298C76.191 42.0564 73.9896 47.0976 70.1279 50.8346C66.1901 54.6357 60.5892 57.0209 54.3175 57.0209C48.0457 57.0209 42.4336 54.6357 38.4986 50.8346C34.6341 47.0976 32.4383 42.0565 32.7399 36.6354Z" fill="white"/>
<path d="M43.2465 37.1094C43.3999 34.3995 44.7392 32.012 46.7597 30.3196C48.7411 28.6572 51.4081 27.6412 54.3181 27.6412C57.2252 27.6412 59.8923 28.6572 61.8752 30.3196C63.8942 32.012 65.2335 34.3995 65.3883 37.1065C65.5416 39.891 64.412 42.4777 62.4306 44.3951C60.4101 46.3455 57.5362 47.5694 54.3181 47.5694C51.1001 47.5694 48.2204 46.3455 46.2014 44.3951C44.2185 42.4777 43.0918 39.891 43.2465 37.1094Z" fill="#265787"/>
<path d="M25.6159 42.5852C25.6347 43.6456 25.9761 45.7064 26.4881 47.3157C27.5641 50.7221 29.3894 53.8734 31.9291 56.6506C34.5354 59.5053 37.7448 61.7982 41.4517 63.4262C45.3481 65.1358 49.5699 66.0071 53.9552 66C58.3332 65.9942 62.555 65.1057 66.4514 63.3832C70.1583 61.7394 73.3648 59.4365 75.9667 56.5805C78.505 53.7917 80.3274 50.6347 81.4064 47.2283C81.9487 45.5072 82.2915 43.7603 82.4289 42.0077C82.5634 40.2808 82.507 38.5511 82.2597 36.8228C81.7766 33.4551 80.6007 30.2952 78.7899 27.4148C77.1339 24.7679 74.9992 22.4507 72.4609 20.5003L72.4667 20.496L46.8508 1.00777C46.8277 0.990576 46.8089 0.971975 46.7843 0.956211C45.1037 -0.322079 42.2776 -0.317773 40.4292 0.963383C38.5605 2.25887 38.3465 4.40127 40.0097 5.75264L40.0025 5.75981L50.6865 14.3682L18.1226 14.4026H18.0792C15.3876 14.4055 12.8001 16.1552 12.2881 18.3664C11.7616 20.6192 13.5898 22.4879 16.3884 22.4979L16.3841 22.508L32.8895 22.4765L3.43659 44.8766C3.39899 44.9038 3.35849 44.9325 3.32378 44.9598C0.545391 47.0678 -0.352754 50.573 1.3973 52.7914C3.17338 55.0471 6.94972 55.0514 9.75703 52.8043L25.8315 39.7692C25.8315 39.7692 25.5971 41.529 25.6159 42.5852ZM66.9214 48.4779C63.6094 51.8212 58.9725 53.7172 53.9552 53.7272C48.9307 53.7358 44.2937 51.8571 40.9817 48.5195C39.3632 46.893 38.1744 45.0214 37.4411 43.028C36.7222 41.069 36.4431 38.9896 36.6282 36.8916C36.8032 34.8409 37.4194 32.8848 38.4029 31.1149C39.369 29.3752 40.6996 27.8032 42.3427 26.4733C45.5622 23.8737 49.6611 22.4664 53.948 22.4607C58.2392 22.455 62.3352 23.8493 65.5576 26.4403C67.1977 27.7645 68.5269 29.3308 69.493 31.0677C70.4809 32.8361 71.0927 34.785 71.2749 36.8415C71.4571 38.9366 71.178 41.0131 70.4592 42.9736C69.7244 44.9727 68.5399 46.8442 66.9214 48.4779Z" fill="#EA7600"/>
</svg>
