<svg width="15" height="16" viewBox="0 0 15 16" fill="none" xmlns="http://www.w3.org/2000/svg">
<path d="M9.41299 6.58808L14.2934 1.70769C14.6849 1.31619 14.6834 0.680708 14.2905 0.290594C13.8996 -0.0975764 13.2679 -0.0968514 12.8784 0.292697L6.29009 6.88098C5.89957 7.2715 5.89957 7.90467 6.2901 8.29519L12.8777 14.8828C13.2672 15.2723 13.8988 15.2723 14.2883 14.8828C14.6776 14.4935 14.6779 13.8624 14.2889 13.4728L9.41299 8.58808L9.11321 8.22705C8.80578 7.8568 8.80567 7.32008 9.11296 6.94971L9.41299 6.58808Z" fill="#FFE5AA"/>
<path d="M5.17309 6.58848L0.292696 1.70808C-0.0988046 1.31658 -0.0972862 0.681099 0.295595 0.290984C0.686518 -0.0971856 1.31815 -0.0964606 1.7077 0.293088L8.29598 6.88137C8.6865 7.27189 8.6865 7.90506 8.29598 8.29558L1.7084 14.8832C1.31887 15.2727 0.687306 15.2727 0.297771 14.8832C-0.0915177 14.4939 -0.0917998 13.8628 0.29714 13.4732L5.17309 8.58847L5.47287 8.22744C5.7803 7.85719 5.7804 7.32047 5.47311 6.9501L5.17309 6.58848Z" fill="#FFE5AA"/>
</svg>
