<svg width="33" height="33" viewBox="0 0 33 33" fill="none" xmlns="http://www.w3.org/2000/svg">
<path d="M16.5 0C13.2366 0 10.0465 0.967708 7.3331 2.78075C4.61969 4.59379 2.50484 7.17074 1.25599 10.1857C0.00714919 13.2007 -0.319606 16.5183 0.31705 19.719C0.953706 22.9197 2.52518 25.8597 4.83274 28.1673C7.14031 30.4748 10.0803 32.0463 13.281 32.6829C16.4817 33.3196 19.7993 32.9928 22.8143 31.744C25.8293 30.4952 28.4062 28.3803 30.2192 25.6669C32.0323 22.9535 33 19.7634 33 16.5C33 14.3332 32.5732 12.1876 31.744 10.1857C30.9148 8.18385 29.6994 6.3649 28.1673 4.83274C26.6351 3.30057 24.8162 2.08519 22.8143 1.25599C20.8124 0.426785 18.6668 0 16.5 0ZM21.7965 19.4535C21.9512 19.6069 22.0739 19.7894 22.1577 19.9904C22.2414 20.1915 22.2846 20.4072 22.2846 20.625C22.2846 20.8428 22.2414 21.0585 22.1577 21.2595C22.0739 21.4606 21.9512 21.6431 21.7965 21.7965C21.6431 21.9511 21.4606 22.0739 21.2596 22.1577C21.0585 22.2414 20.8428 22.2846 20.625 22.2846C20.4072 22.2846 20.1915 22.2414 19.9905 22.1577C19.7894 22.0739 19.6069 21.9511 19.4535 21.7965L16.5 18.8265L13.5465 21.7965C13.3931 21.9511 13.2106 22.0739 13.0096 22.1577C12.8085 22.2414 12.5928 22.2846 12.375 22.2846C12.1572 22.2846 11.9415 22.2414 11.7405 22.1577C11.5394 22.0739 11.3569 21.9511 11.2035 21.7965C11.0489 21.6431 10.9261 21.4606 10.8423 21.2595C10.7586 21.0585 10.7154 20.8428 10.7154 20.625C10.7154 20.4072 10.7586 20.1915 10.8423 19.9904C10.9261 19.7894 11.0489 19.6069 11.2035 19.4535L14.1735 16.5L11.2035 13.5465C10.8928 13.2358 10.7183 12.8144 10.7183 12.375C10.7183 11.9356 10.8928 11.5142 11.2035 11.2035C11.5142 10.8928 11.9356 10.7182 12.375 10.7182C12.8144 10.7182 13.2358 10.8928 13.5465 11.2035L16.5 14.1735L19.4535 11.2035C19.7642 10.8928 20.1856 10.7182 20.625 10.7182C21.0644 10.7182 21.4858 10.8928 21.7965 11.2035C22.1072 11.5142 22.2818 11.9356 22.2818 12.375C22.2818 12.8144 22.1072 13.2358 21.7965 13.5465L18.8265 16.5L21.7965 19.4535Z" fill="#362A0E"/>
</svg>
