<svg width="91" height="70" viewBox="0 0 91 70" fill="none" xmlns="http://www.w3.org/2000/svg">
<g filter="url(#filter0_d_26_25)">
<path d="M82 65H5C3.11438 65 2.17157 65 1.58579 64.4142C1 63.8284 1 62.8856 1 61V11.2716V5C1 3.11438 1 2.17157 1.58579 1.58579C2.17157 1 3.11438 1 5 1H27.7593C29.2946 1 30.7914 1.48119 32.0391 2.37592L32.6904 2.84297C34.5878 4.20355 35.9394 6.19461 36.5036 8.4602L37.2037 11.2716H82C83.8856 11.2716 84.8284 11.2716 85.4142 11.8574C86 12.4432 86 13.386 86 15.2716V61C86 62.8856 86 63.8284 85.4142 64.4142C84.8284 65 83.8856 65 82 65Z" fill="#86D5FF"/>
<path d="M1 11.2716V5C1 3.11438 1 2.17157 1.58579 1.58579C2.17157 1 3.11438 1 5 1H27.7593V1C29.2946 1 30.7914 1.48119 32.0391 2.37592L32.6904 2.84297C34.5878 4.20355 35.9394 6.19461 36.5036 8.4602L37.2037 11.2716M1 11.2716V61C1 62.8856 1 63.8284 1.58579 64.4142C2.17157 65 3.11438 65 5 65H82C83.8856 65 84.8284 65 85.4142 64.4142C86 63.8284 86 62.8856 86 61V15.2716C86 13.386 86 12.4432 85.4142 11.8574C84.8284 11.2716 83.8856 11.2716 82 11.2716H37.2037M1 11.2716H37.2037" stroke="black"/>
</g>
<defs>
<filter id="filter0_d_26_25" x="0.5" y="0.5" width="90.1" height="69.1" filterUnits="userSpaceOnUse" color-interpolation-filters="sRGB">
<feFlood flood-opacity="0" result="BackgroundImageFix"/>
<feColorMatrix in="SourceAlpha" type="matrix" values="0 0 0 0 0 0 0 0 0 0 0 0 0 0 0 0 0 0 127 0" result="hardAlpha"/>
<feOffset dx="4" dy="4"/>
<feGaussianBlur stdDeviation="0.05"/>
<feComposite in2="hardAlpha" operator="out"/>
<feColorMatrix type="matrix" values="0 0 0 0 0 0 0 0 0 0 0 0 0 0 0 0 0 0 0.25 0"/>
<feBlend mode="normal" in2="BackgroundImageFix" result="effect1_dropShadow_26_25"/>
<feBlend mode="normal" in="SourceGraphic" in2="effect1_dropShadow_26_25" result="shape"/>
</filter>
</defs>
</svg>
