<svg width="11" height="18" viewBox="0 0 11 18" fill="none" xmlns="http://www.w3.org/2000/svg">
<path opacity="0.65" d="M8.96 9.04H8.32V3.54412C8.32 1.77772 6.8864 0.34412 5.12 0.34412C3.3536 0.34412 1.92 1.77772 1.92 3.54412V9.04H1.28C0.576 9.04 0 9.616 0 10.32V16.72C0 17.424 0.576 18 1.28 18H8.96C9.664 18 10.24 17.424 10.24 16.72V10.32C10.24 9.616 9.664 9.04 8.96 9.04ZM5.12 16C4.416 16 3.84 13.484 3.84 12.78C3.84 12.076 4.416 11.5 5.12 11.5C5.824 11.5 6.4 12.076 6.4 12.78C6.4 13.484 5.824 16 5.12 16ZM7.104 9.04H3.136V3.54412C3.136 2.44972 4.0256 1.56012 5.12 1.56012C6.2144 1.56012 7.104 2.44972 7.104 3.54412V9.04Z" fill="#362A0E"/>
</svg>
