<svg width="10" height="15" viewBox="0 0 10 15" fill="none" xmlns="http://www.w3.org/2000/svg">
<g opacity="0.65">
<path d="M10 10C10 12.7614 7.76142 15 5 15C2.23858 15 0 12.7614 0 10C0 7.23858 2.23858 5 5 5C7.76142 5 10 7.23858 10 10ZM3.38241 10C3.38241 10.8934 4.10663 11.6176 5 11.6176C5.89337 11.6176 6.61759 10.8934 6.61759 10C6.61759 9.10663 5.89337 8.38241 5 8.38241C4.10663 8.38241 3.38241 9.10663 3.38241 10Z" fill="#362A0E"/>
<path d="M8 3C8 2.60603 7.9224 2.21593 7.77164 1.85195C7.62087 1.48797 7.3999 1.15726 7.12132 0.87868C6.84274 0.600104 6.51203 0.379125 6.14805 0.228361C5.78407 0.0775973 5.39397 -1.72208e-08 5 0C4.60603 1.72208e-08 4.21593 0.0775973 3.85195 0.228361C3.48797 0.379126 3.15726 0.600104 2.87868 0.87868C2.6001 1.15726 2.37913 1.48797 2.22836 1.85195C2.0776 2.21593 2 2.60603 2 3V9H3.5L3.47463 3C3.47463 2.79969 3.51409 2.60133 3.59075 2.41627C3.6674 2.2312 3.77976 2.06305 3.9214 1.9214C4.06305 1.77976 4.2312 1.6674 4.41627 1.59075C4.60133 1.51409 4.79969 1.47463 5 1.47463C5.20031 1.47463 5.39867 1.51409 5.58373 1.59075C5.7688 1.6674 5.93695 1.77976 6.0786 1.9214C6.22024 2.06305 6.3326 2.2312 6.40925 2.41627C6.48591 2.60133 6.52537 2.79969 6.52537 3L6.5 9H8V3Z" fill="#362A0E"/>
</g>
</svg>
