<svg width="64" height="79" viewBox="0 0 64 79" fill="none" xmlns="http://www.w3.org/2000/svg">
<g filter="url(#filter0_d_331_7)">
<path d="M1 72V15.7553L15.8919 1H57C58.1046 1 59 1.89543 59 3V72C59 73.1046 58.1046 74 57 74H3C1.89543 74 1 73.1046 1 72Z" fill="#FFFCFC"/>
<path d="M1 15.7553V72C1 73.1046 1.89543 74 3 74H57C58.1046 74 59 73.1046 59 72V3C59 1.89543 58.1046 1 57 1H15.8919M1 15.7553H13.8919C14.9965 15.7553 15.8919 14.8599 15.8919 13.7553V1M1 15.7553L15.8919 1" stroke="black"/>
</g>
<defs>
<filter id="filter0_d_331_7" x="0.5" y="0.5" width="63.5" height="78.5" filterUnits="userSpaceOnUse" color-interpolation-filters="sRGB">
<feFlood flood-opacity="0" result="BackgroundImageFix"/>
<feColorMatrix in="SourceAlpha" type="matrix" values="0 0 0 0 0 0 0 0 0 0 0 0 0 0 0 0 0 0 127 0" result="hardAlpha"/>
<feOffset dx="4" dy="4"/>
<feGaussianBlur stdDeviation="0.25"/>
<feComposite in2="hardAlpha" operator="out"/>
<feColorMatrix type="matrix" values="0 0 0 0 0 0 0 0 0 0 0 0 0 0 0 0 0 0 0.25 0"/>
<feBlend mode="normal" in2="BackgroundImageFix" result="effect1_dropShadow_331_7"/>
<feBlend mode="normal" in="SourceGraphic" in2="effect1_dropShadow_331_7" result="shape"/>
</filter>
</defs>
</svg>
