<svg width="104" height="87" viewBox="0 0 104 87" fill="none" xmlns="http://www.w3.org/2000/svg">
<g filter="url(#filter0_d_31_61)">
<path d="M89.4602 1H10.5398C8.90451 1 8.08685 1 7.57882 1.5102C7.0708 2.0204 7.0708 2.84156 7.0708 4.48387V56.7419C7.0708 58.3843 7.0708 59.2054 7.57882 59.7156C8.08685 60.2258 8.90451 60.2258 10.5398 60.2258H89.4602C91.0955 60.2258 91.9132 60.2258 92.4212 59.7156C92.9292 59.2054 92.9292 58.3843 92.9292 56.7419V4.48387C92.9292 2.84156 92.9292 2.0204 92.4212 1.5102C91.9132 1 91.0955 1 89.4602 1Z" fill="#999999"/>
<path d="M87.7257 4.48387H12.2743C11.3164 4.48387 10.5398 5.26376 10.5398 6.22581V55C10.5398 55.962 11.3164 56.7419 12.2743 56.7419H87.7257C88.6836 56.7419 89.4602 55.962 89.4602 55V6.22581C89.4602 5.26376 88.6836 4.48387 87.7257 4.48387Z" fill="#71FFC1"/>
<path d="M97.2655 60.2258H2.73451C1.77657 60.2258 1 61.0057 1 61.9677V80.2581C1 81.2201 1.77657 82 2.73451 82H97.2655C98.2234 82 99 81.2201 99 80.2581V61.9677C99 61.0057 98.2234 60.2258 97.2655 60.2258Z" fill="#999999"/>
<path d="M7.57882 59.7156L7.22451 60.0684L7.22452 60.0684L7.57882 59.7156ZM92.4212 59.7156L92.7755 60.0684L92.7755 60.0684L92.4212 59.7156ZM72.5487 14.0645V13.5645H72.2184L72.0888 13.8683L72.5487 14.0645ZM73.8496 14.0645L74.3094 13.8683L74.1798 13.5645H73.8496V14.0645ZM68.646 23.2097L68.1861 23.0134L68.146 23.1075V23.2097H68.646ZM77.7522 23.2097H78.2522V23.1075L78.2121 23.0134L77.7522 23.2097ZM25.7168 14.0645V13.5645H25.3866L25.2569 13.8683L25.7168 14.0645ZM27.0177 14.0645L27.4776 13.8683L27.348 13.5645H27.0177V14.0645ZM21.8142 23.2097L21.3543 23.0134L21.3142 23.1075V23.2097H21.8142ZM30.9204 23.2097H31.4204V23.1075L31.3802 23.0134L30.9204 23.2097ZM10.5398 1.5H89.4602V0.5H10.5398V1.5ZM92.4292 4.48387V56.7419H93.4292V4.48387H92.4292ZM89.4602 59.7258H10.5398V60.7258H89.4602V59.7258ZM7.5708 56.7419V4.48387H6.5708V56.7419H7.5708ZM10.5398 59.7258C9.70797 59.7258 9.13459 59.7247 8.70349 59.6665C8.287 59.6103 8.07885 59.5091 7.93313 59.3628L7.22452 60.0684C7.58683 60.4323 8.04152 60.5862 8.56969 60.6575C9.08325 60.7269 9.73636 60.7258 10.5398 60.7258V59.7258ZM6.5708 56.7419C6.5708 57.549 6.56974 58.2044 6.63872 58.7197C6.7096 59.2491 6.8625 59.7048 7.22451 60.0684L7.93313 59.3628C7.78712 59.2162 7.68601 59.0063 7.62988 58.587C7.57185 58.1535 7.5708 57.5772 7.5708 56.7419H6.5708ZM92.4292 56.7419C92.4292 57.5772 92.4282 58.1535 92.3701 58.587C92.314 59.0063 92.2129 59.2162 92.0669 59.3628L92.7755 60.0684C93.1375 59.7048 93.2904 59.2491 93.3613 58.7197C93.4303 58.2044 93.4292 57.549 93.4292 56.7419H92.4292ZM89.4602 60.7258C90.2636 60.7258 90.9167 60.7269 91.4303 60.6575C91.9585 60.5862 92.4132 60.4323 92.7755 60.0684L92.0669 59.3628C91.9212 59.5091 91.713 59.6103 91.2965 59.6665C90.8654 59.7247 90.292 59.7258 89.4602 59.7258V60.7258ZM89.4602 1.5C90.292 1.5 90.8654 1.50107 91.2965 1.55928C91.713 1.61552 91.9212 1.71666 92.0669 1.863L92.7755 1.1574C92.4132 0.793541 91.9585 0.639585 91.4303 0.568271C90.9167 0.498929 90.2636 0.5 89.4602 0.5V1.5ZM93.4292 4.48387C93.4292 3.67679 93.4303 3.02139 93.3613 2.50615C93.2904 1.97674 93.1375 1.52097 92.7755 1.1574L92.0669 1.863C92.2129 2.00963 92.314 2.21954 92.3701 2.63884C92.4282 3.0723 92.4292 3.64864 92.4292 4.48387H93.4292ZM10.5398 0.5C9.73636 0.5 9.08325 0.498929 8.56969 0.568271C8.04152 0.639585 7.58683 0.793541 7.22452 1.1574L7.93313 1.863C8.07885 1.71666 8.287 1.61552 8.70349 1.55928C9.13459 1.50107 9.70797 1.5 10.5398 1.5V0.5ZM7.5708 4.48387C7.5708 3.64864 7.57185 3.0723 7.62988 2.63884C7.68601 2.21954 7.78712 2.00963 7.93313 1.863L7.22452 1.1574C6.8625 1.52097 6.70959 1.97674 6.63872 2.50615C6.56974 3.02139 6.5708 3.67679 6.5708 4.48387H7.5708ZM12.2743 4.98387H87.7257V3.98387H12.2743V4.98387ZM88.9602 6.22581V55H89.9602V6.22581H88.9602ZM87.7257 56.2419H12.2743V57.2419H87.7257V56.2419ZM11.0398 55V6.22581H10.0398V55H11.0398ZM12.2743 56.2419C11.5945 56.2419 11.0398 55.6879 11.0398 55H10.0398C10.0398 56.2362 11.0382 57.2419 12.2743 57.2419V56.2419ZM88.9602 55C88.9602 55.6879 88.4055 56.2419 87.7257 56.2419V57.2419C88.9618 57.2419 89.9602 56.2362 89.9602 55H88.9602ZM87.7257 4.98387C88.4055 4.98387 88.9602 5.53789 88.9602 6.22581H89.9602C89.9602 4.98963 88.9618 3.98387 87.7257 3.98387V4.98387ZM12.2743 3.98387C11.0382 3.98387 10.0398 4.98964 10.0398 6.22581H11.0398C11.0398 5.53789 11.5945 4.98387 12.2743 4.98387V3.98387ZM2.73451 60.7258H97.2655V59.7258H2.73451V60.7258ZM98.5 61.9677V80.2581H99.5V61.9677H98.5ZM97.2655 81.5H2.73451V82.5H97.2655V81.5ZM1.5 80.2581V61.9677H0.5V80.2581H1.5ZM2.73451 81.5C2.05472 81.5 1.5 80.946 1.5 80.2581H0.5C0.5 81.4942 1.49842 82.5 2.73451 82.5V81.5ZM98.5 80.2581C98.5 80.946 97.9453 81.5 97.2655 81.5V82.5C98.5016 82.5 99.5 81.4942 99.5 80.2581H98.5ZM97.2655 60.7258C97.9453 60.7258 98.5 61.2798 98.5 61.9677H99.5C99.5 60.7316 98.5016 59.7258 97.2655 59.7258V60.7258ZM2.73451 59.7258C1.49841 59.7258 0.5 60.7316 0.5 61.9677H1.5C1.5 61.2798 2.05472 60.7258 2.73451 60.7258V59.7258ZM72.5487 14.5645H73.8496V13.5645H72.5487V14.5645ZM69.146 24.5161V23.2097H68.146V24.5161H69.146ZM69.1059 23.4059L73.0086 14.2608L72.0888 13.8683L68.1861 23.0134L69.1059 23.4059ZM73.3897 14.2608L77.2923 23.4059L78.2121 23.0134L74.3094 13.8683L73.3897 14.2608ZM77.2522 23.2097V24.5161H78.2522V23.2097H77.2522ZM25.7168 14.5645H27.0177V13.5645H25.7168V14.5645ZM22.3142 24.5161V23.2097H21.3142V24.5161H22.3142ZM22.274 23.4059L26.1767 14.2608L25.2569 13.8683L21.3543 23.0134L22.274 23.4059ZM26.5578 14.2608L30.4605 23.4059L31.3802 23.0134L27.4776 13.8683L26.5578 14.2608ZM30.4204 23.2097V24.5161H31.4204V23.2097H30.4204ZM32.2212 40.6936H66.4779V39.6936H32.2212V40.6936Z" fill="black"/>
</g>
<defs>
<filter id="filter0_d_31_61" x="0.5" y="0.499999" width="103.1" height="86.1" filterUnits="userSpaceOnUse" color-interpolation-filters="sRGB">
<feFlood flood-opacity="0" result="BackgroundImageFix"/>
<feColorMatrix in="SourceAlpha" type="matrix" values="0 0 0 0 0 0 0 0 0 0 0 0 0 0 0 0 0 0 127 0" result="hardAlpha"/>
<feOffset dx="4" dy="4"/>
<feGaussianBlur stdDeviation="0.05"/>
<feComposite in2="hardAlpha" operator="out"/>
<feColorMatrix type="matrix" values="0 0 0 0 0 0 0 0 0 0 0 0 0 0 0 0 0 0 0.25 0"/>
<feBlend mode="normal" in2="BackgroundImageFix" result="effect1_dropShadow_31_61"/>
<feBlend mode="normal" in="SourceGraphic" in2="effect1_dropShadow_31_61" result="shape"/>
</filter>
</defs>
</svg>
