<svg width="24" height="27" viewBox="0 0 24 27" fill="none" xmlns="http://www.w3.org/2000/svg">
<path d="M11.7188 2V13.3281" stroke="#FFC643" stroke-width="3" stroke-linecap="round"/>
<mask id="path-2-inside-1_78_40" fill="white">
<path d="M16.9221 6.26878C17.2844 5.64124 18.0922 5.42057 18.6754 5.85073C20.3847 7.11165 21.7263 8.8191 22.5455 10.7967C23.5327 13.18 23.7059 15.8225 23.0382 18.3143C22.3705 20.8061 20.8993 23.0079 18.8527 24.5784C16.8061 26.1488 14.2984 27 11.7188 27C9.13905 27 6.63144 26.1488 4.58483 24.5784C2.53822 23.0079 1.06698 20.8061 0.399307 18.3143C-0.268368 15.8225 -0.0951713 13.18 0.892036 10.7967C1.71118 8.8191 3.05277 7.11165 4.76212 5.85073C5.34525 5.42058 6.15308 5.64124 6.51539 6.26878C6.87771 6.89632 6.65523 7.69185 6.0863 8.14061C4.8709 9.09931 3.9143 10.3574 3.31638 11.8009C2.55023 13.6505 2.41581 15.7013 2.93398 17.6351C3.45215 19.569 4.59394 21.2778 6.18227 22.4965C7.7706 23.7153 9.7167 24.3759 11.7188 24.3759C13.7208 24.3759 15.6669 23.7153 17.2552 22.4965C18.8436 21.2778 19.9854 19.569 20.5035 17.6351C21.0217 15.7013 20.8873 13.6505 20.1211 11.8009C19.5232 10.3574 18.5666 9.09931 17.3512 8.14061C16.7823 7.69184 16.5598 6.89632 16.9221 6.26878Z"/>
</mask>
<path d="M16.9221 6.26878C17.2844 5.64124 18.0922 5.42057 18.6754 5.85073C20.3847 7.11165 21.7263 8.8191 22.5455 10.7967C23.5327 13.18 23.7059 15.8225 23.0382 18.3143C22.3705 20.8061 20.8993 23.0079 18.8527 24.5784C16.8061 26.1488 14.2984 27 11.7188 27C9.13905 27 6.63144 26.1488 4.58483 24.5784C2.53822 23.0079 1.06698 20.8061 0.399307 18.3143C-0.268368 15.8225 -0.0951713 13.18 0.892036 10.7967C1.71118 8.8191 3.05277 7.11165 4.76212 5.85073C5.34525 5.42058 6.15308 5.64124 6.51539 6.26878C6.87771 6.89632 6.65523 7.69185 6.0863 8.14061C4.8709 9.09931 3.9143 10.3574 3.31638 11.8009C2.55023 13.6505 2.41581 15.7013 2.93398 17.6351C3.45215 19.569 4.59394 21.2778 6.18227 22.4965C7.7706 23.7153 9.7167 24.3759 11.7188 24.3759C13.7208 24.3759 15.6669 23.7153 17.2552 22.4965C18.8436 21.2778 19.9854 19.569 20.5035 17.6351C21.0217 15.7013 20.8873 13.6505 20.1211 11.8009C19.5232 10.3574 18.5666 9.09931 17.3512 8.14061C16.7823 7.69184 16.5598 6.89632 16.9221 6.26878Z" stroke="#FFC643" stroke-width="8" mask="url(#path-2-inside-1_78_40)"/>
</svg>
