<svg width="122" height="122" viewBox="0 0 122 122" fill="none" xmlns="http://www.w3.org/2000/svg">
<g filter="url(#filter0_d_338_91)">
<path d="M28.5 93.5H30.5H89.5H92C94.2091 93.5 96 95.2909 96 97.5V99C96 101.209 97.7909 103 100 103H102.5C104.709 103 106.5 101.209 106.5 99V64.5C106.5 62.2909 104.709 60.5 102.5 60.5H96H24.5H18C15.7909 60.5 14 62.2909 14 64.5V99C14 101.209 15.7909 103 18 103H20.5C22.7091 103 24.5 101.209 24.5 99V97.5C24.5 95.2909 26.2909 93.5 28.5 93.5Z" fill="#999999"/>
<path d="M86.5 69H91M96.5 69H101M89.5 93.5H92C94.2091 93.5 96 95.2909 96 97.5V99C96 101.209 97.7909 103 100 103H102.5C104.709 103 106.5 101.209 106.5 99V64.5C106.5 62.2909 104.709 60.5 102.5 60.5H96H24.5H18C15.7909 60.5 14 62.2909 14 64.5V99C14 101.209 15.7909 103 18 103H20.5C22.7091 103 24.5 101.209 24.5 99V97.5C24.5 95.2909 26.2909 93.5 28.5 93.5H30.5H89.5Z" stroke="black"/>
</g>
<defs>
<filter id="filter0_d_338_91" x="9.5" y="60" width="101.5" height="51.5" filterUnits="userSpaceOnUse" color-interpolation-filters="sRGB">
<feFlood flood-opacity="0" result="BackgroundImageFix"/>
<feColorMatrix in="SourceAlpha" type="matrix" values="0 0 0 0 0 0 0 0 0 0 0 0 0 0 0 0 0 0 127 0" result="hardAlpha"/>
<feOffset dy="4"/>
<feGaussianBlur stdDeviation="2"/>
<feComposite in2="hardAlpha" operator="out"/>
<feColorMatrix type="matrix" values="0 0 0 0 0 0 0 0 0 0 0 0 0 0 0 0 0 0 0.25 0"/>
<feBlend mode="normal" in2="BackgroundImageFix" result="effect1_dropShadow_338_91"/>
<feBlend mode="normal" in="SourceGraphic" in2="effect1_dropShadow_338_91" result="shape"/>
</filter>
</defs>
</svg>
