<svg width="122" height="122" viewBox="0 0 122 122" fill="none" xmlns="http://www.w3.org/2000/svg">
<g filter="url(#filter0_d_338_90)">
<path d="M31 83V26.7553L45.8919 12H87C88.1046 12 89 12.8954 89 14V83C89 84.1046 88.1046 85 87 85H33C31.8954 85 31 84.1046 31 83Z" fill="#FFFCFC"/>
<path d="M31 26.7553V83C31 84.1046 31.8954 85 33 85H87C88.1046 85 89 84.1046 89 83V14C89 12.8954 88.1046 12 87 12H45.8919M31 26.7553H43.8919C44.9965 26.7553 45.8919 25.8599 45.8919 24.7553V12M31 26.7553L45.8919 12" stroke="black"/>
</g>
<defs>
<filter id="filter0_d_338_90" x="30.5" y="11.5" width="63.5" height="78.5" filterUnits="userSpaceOnUse" color-interpolation-filters="sRGB">
<feFlood flood-opacity="0" result="BackgroundImageFix"/>
<feColorMatrix in="SourceAlpha" type="matrix" values="0 0 0 0 0 0 0 0 0 0 0 0 0 0 0 0 0 0 127 0" result="hardAlpha"/>
<feOffset dx="4" dy="4"/>
<feGaussianBlur stdDeviation="0.25"/>
<feComposite in2="hardAlpha" operator="out"/>
<feColorMatrix type="matrix" values="0 0 0 0 0 0 0 0 0 0 0 0 0 0 0 0 0 0 0.25 0"/>
<feBlend mode="normal" in2="BackgroundImageFix" result="effect1_dropShadow_338_90"/>
<feBlend mode="normal" in="SourceGraphic" in2="effect1_dropShadow_338_90" result="shape"/>
</filter>
</defs>
</svg>
