<svg width="144" height="125" viewBox="0 0 144 125" fill="none" xmlns="http://www.w3.org/2000/svg">
<g clip-path="url(#clip0_517_384)">
<path d="M72 75.0223C79.0393 75.0223 84.7457 69.4159 84.7457 62.5C84.7457 55.5841 79.0393 49.9777 72 49.9777C64.9608 49.9777 59.2544 55.5841 59.2544 62.5C59.2544 69.4159 64.9608 75.0223 72 75.0223Z" fill="#61DAFB"/>
<path d="M72.0002 88.1555C109.772 88.1555 140.391 76.6691 140.391 62.5C140.391 48.3309 109.772 36.8445 72.0002 36.8445C34.2287 36.8445 3.60889 48.3309 3.60889 62.5C3.60889 76.6691 34.2287 88.1555 72.0002 88.1555Z" stroke="#61DAFB"/>
<path d="M49.3855 75.3277C68.2712 107.466 93.706 127.775 106.196 120.691C118.685 113.606 113.5 81.8101 94.6146 49.6723C75.7289 17.5344 50.2941 -2.77529 37.8044 4.30927C25.3147 11.3938 30.4997 43.1899 49.3855 75.3277Z" stroke="#61DAFB"/>
<path d="M49.3858 49.6723C30.5 81.8101 25.315 113.606 37.8047 120.691C50.2944 127.775 75.7292 107.466 94.6149 75.3277C113.501 43.1899 118.686 11.3938 106.196 4.30926C93.7063 -2.7753 68.2715 17.5344 49.3858 49.6723Z" stroke="#61DAFB"/>
</g>
<defs>
<clipPath id="clip0_517_384">
<rect width="143" height="125" fill="white" transform="translate(0.5)"/>
</clipPath>
</defs>
</svg>
