<svg width="266" height="16" viewBox="0 0 266 16" fill="none" xmlns="http://www.w3.org/2000/svg">
<path d="M1 14.771C8.97939 14.771 16.9581 1 24.9375 1C32.9169 1 40.8956 14.771 48.875 14.771C56.8544 14.771 64.8331 1 72.8125 1C80.7919 1 88.7706 14.771 96.75 14.771C104.729 14.771 112.708 1 120.688 1C128.667 1 136.646 14.771 144.625 14.771C152.604 14.771 160.583 1 168.562 1C176.542 1 184.521 14.771 192.5 14.771C200.479 14.771 208.458 1 216.438 1C224.417 1 232.396 14.771 240.375 14.771C248.354 14.771 256.333 1 264.312 1" stroke="#B1D043" stroke-width="2" stroke-linecap="round"/>
</svg>
