<svg width="86" height="52" viewBox="0 0 86 52" fill="none" xmlns="http://www.w3.org/2000/svg">
<g clip-path="url(#clip0_517_661)">
<mask id="mask0_517_661" style="mask-type:luminance" maskUnits="userSpaceOnUse" x="0" y="0" width="86" height="52">
<path d="M0.5 0H85.5V51.0545H0.5V0Z" fill="white"/>
</mask>
<g mask="url(#mask0_517_661)">
<path fill-rule="evenodd" clip-rule="evenodd" d="M43 0C31.6667 0 24.5833 5.67273 21.75 17.0182C26 11.3455 30.9583 9.21818 36.625 10.6364C39.8581 11.4447 42.1689 13.7942 44.7268 16.3926C48.8933 20.6267 53.7163 25.5273 64.25 25.5273C75.5833 25.5273 82.6667 19.8545 85.5 8.50909C81.25 14.1818 76.2917 16.3091 70.625 14.8909C67.3918 14.0825 65.0811 11.7331 62.5232 9.13467C58.3567 4.90061 53.5337 0 43 0ZM21.75 25.5273C10.4167 25.5273 3.33333 31.2 0.5 42.5455C4.75 36.8727 9.70833 34.7455 15.375 36.1636C18.6081 36.9736 20.9189 39.3215 23.4768 41.9199C27.6433 46.1539 32.4663 51.0545 43 51.0545C54.3333 51.0545 61.4167 45.3818 64.25 34.0364C60 39.7091 55.0417 41.8364 49.375 40.4182C46.1418 39.6098 43.8311 37.2604 41.2732 34.6619C37.1067 30.4279 32.2837 25.5273 21.75 25.5273Z" fill="#38BDF8"/>
</g>
</g>
<defs>
<clipPath id="clip0_517_661">
<rect width="85" height="52" fill="white" transform="translate(0.5)"/>
</clipPath>
</defs>
</svg>
