<svg width="176" height="177" viewBox="0 0 176 177" fill="none" xmlns="http://www.w3.org/2000/svg">
<path d="M45.2402 175.942L1.5 1.08695L174.5 49.9235" fill="white"/>
<path d="M45.2402 175.942L1.5 1.08695L174.5 49.9235M66.6062 100.789L77.5341 144.524M66.6062 100.789L109.77 113.078M66.6062 100.789L34.3706 132.236M66.6062 100.789L98.8707 69.3132M66.6062 100.789L55.6784 57.0533M66.6062 100.789L23.4427 88.5M77.5341 144.524L109.77 113.078M77.5341 144.524L34.3706 132.236M77.5341 144.524L45.2984 176L34.3706 132.236M109.77 113.078L98.8707 69.3132M109.77 113.078L142.034 81.602M34.3706 132.236L23.4427 88.5M98.8707 69.3132L131.106 37.8665M98.8707 69.3132L87.9429 25.5777M98.8707 69.3132L55.6784 57.0533M98.8707 69.3132L142.034 81.602M131.106 37.8665L174.27 50.1554L142.034 81.602M131.106 37.8665L142.034 81.602M131.106 37.8665L87.9429 25.5777M87.9429 25.5777L55.6784 57.0243L44.7506 13.2888M87.9429 25.5777L44.7506 13.2888M55.6784 57.0533L12.5149 44.7645M55.6784 57.0533L23.4427 88.5M23.4427 88.5L12.5149 44.7645M12.5149 44.7645L1.58707 1L44.7506 13.2888M12.5149 44.7645L44.7506 13.2888" stroke="black" stroke-miterlimit="10"/>
</svg>
