<svg width="787" height="30" viewBox="0 0 787 30" fill="none" xmlns="http://www.w3.org/2000/svg">
<path d="M1.32181 0.617329C1.11047 0.439597 0.795061 0.466845 0.617329 0.678188C0.439597 0.889531 0.466845 1.20494 0.678188 1.38267L1.32181 0.617329ZM9.18704 7.885L8.86523 8.26767L8.86526 8.2677L9.18704 7.885ZM778.813 7.885L779.135 8.2677L779.135 8.26767L778.813 7.885ZM787 1L781.315 2.00877L785.031 6.42747L787 1ZM0.678188 1.38267L8.86523 8.26767L9.50885 7.50233L1.32181 0.617329L0.678188 1.38267ZM8.86526 8.2677C12.958 11.7089 19.1262 16.8972 26.3284 21.2235C33.5245 25.5461 41.805 29.041 50.125 29.041V28.041C42.0695 28.041 33.9753 24.6504 26.8433 20.3663C19.7175 16.0858 13.6045 10.9461 9.50882 7.5023L8.86526 8.2677ZM50.125 29.041C58.4325 29.041 66.7168 25.5495 74.8813 22.1164C83.0916 18.664 91.182 15.27 99.25 15.27V14.27C90.9425 14.27 82.6582 17.7615 74.4937 21.1946C66.2834 24.647 58.193 28.041 50.125 28.041V29.041ZM99.25 15.27C107.318 15.27 115.408 18.664 123.619 22.1164C131.783 25.5495 140.068 29.041 148.375 29.041V28.041C140.307 28.041 132.217 24.647 124.006 21.1946C115.842 17.7615 107.557 14.27 99.25 14.27V15.27ZM148.375 29.041C156.682 29.041 164.967 25.5495 173.131 22.1164C181.342 18.664 189.432 15.27 197.5 15.27V14.27C189.193 14.27 180.908 17.7615 172.744 21.1946C164.533 24.647 156.443 28.041 148.375 28.041V29.041ZM197.5 15.27C205.568 15.27 213.658 18.664 221.869 22.1164C230.033 25.5495 238.318 29.041 246.625 29.041V28.041C238.557 28.041 230.467 24.647 222.256 21.1946C214.092 17.7615 205.807 14.27 197.5 14.27V15.27ZM246.625 29.041C254.932 29.041 263.217 25.5495 271.381 22.1164C279.592 18.664 287.682 15.27 295.75 15.27V14.27C287.443 14.27 279.158 17.7615 270.994 21.1946C262.783 24.647 254.693 28.041 246.625 28.041V29.041ZM295.75 15.27C303.818 15.27 311.908 18.664 320.119 22.1164C328.283 25.5495 336.568 29.041 344.875 29.041V28.041C336.807 28.041 328.717 24.647 320.506 21.1946C312.342 17.7615 304.057 14.27 295.75 14.27V15.27ZM344.875 29.041C353.182 29.041 361.467 25.5495 369.631 22.1164C377.842 18.664 385.932 15.27 394 15.27V14.27C385.693 14.27 377.408 17.7615 369.244 21.1946C361.033 24.647 352.943 28.041 344.875 28.041V29.041ZM394 15.27C402.068 15.27 410.158 18.664 418.369 22.1164C426.533 25.5495 434.818 29.041 443.125 29.041V28.041C435.057 28.041 426.967 24.647 418.756 21.1946C410.592 17.7615 402.307 14.27 394 14.27V15.27ZM443.125 29.041C451.432 29.041 459.717 25.5495 467.881 22.1164C476.092 18.664 484.182 15.27 492.25 15.27V14.27C483.943 14.27 475.658 17.7615 467.494 21.1946C459.283 24.647 451.193 28.041 443.125 28.041V29.041ZM492.25 15.27C500.318 15.27 508.408 18.664 516.619 22.1164C524.783 25.5495 533.068 29.041 541.375 29.041V28.041C533.307 28.041 525.217 24.647 517.006 21.1946C508.842 17.7615 500.557 14.27 492.25 14.27V15.27ZM541.375 29.041C549.682 29.041 557.967 25.5495 566.131 22.1164C574.342 18.664 582.432 15.27 590.5 15.27V14.27C582.193 14.27 573.908 17.7615 565.744 21.1946C557.533 24.647 549.443 28.041 541.375 28.041V29.041ZM590.5 15.27C598.568 15.27 606.658 18.664 614.869 22.1164C623.033 25.5495 631.318 29.041 639.625 29.041V28.041C631.557 28.041 623.467 24.647 615.256 21.1946C607.092 17.7615 598.807 14.27 590.5 14.27V15.27ZM639.625 29.041C647.932 29.041 656.217 25.5495 664.381 22.1164C672.592 18.664 680.682 15.27 688.75 15.27V14.27C680.443 14.27 672.158 17.7615 663.994 21.1946C655.783 24.647 647.693 28.041 639.625 28.041V29.041ZM688.75 15.27C696.818 15.27 704.908 18.664 713.119 22.1164C721.283 25.5495 729.568 29.041 737.875 29.041V28.041C729.807 28.041 721.717 24.647 713.506 21.1946C705.342 17.7615 697.057 14.27 688.75 14.27V15.27ZM737.875 29.041C746.195 29.041 754.475 25.5461 761.672 21.2235C768.874 16.8972 775.042 11.7089 779.135 8.2677L778.491 7.5023C774.395 10.9461 768.282 16.0858 761.157 20.3663C754.025 24.6504 745.93 28.041 737.875 28.041V29.041ZM779.135 8.26767L783.878 4.27898L783.234 3.51364L778.491 7.50233L779.135 8.26767Z" fill="#B1D043"/>
</svg>
