<svg width="37" height="30" viewBox="0 0 37 30" fill="none" xmlns="http://www.w3.org/2000/svg">
<path d="M35.1495 9.375H33.6692C33.4778 8.53367 33.1529 7.72944 32.7069 6.99375L33.7432 5.94375C34.0463 5.58506 34.2048 5.12367 34.1868 4.65177C34.1688 4.17988 33.9757 3.73225 33.6462 3.39832C33.3166 3.06439 32.8748 2.86877 32.4091 2.85054C31.9434 2.83231 31.488 2.99283 31.134 3.3L30.0978 4.35C29.3717 3.89815 28.578 3.56886 27.7477 3.375V1.875C27.7477 1.37772 27.5527 0.900806 27.2057 0.549175C26.8587 0.197544 26.388 0 25.8972 0C25.4064 0 24.9358 0.197544 24.5887 0.549175C24.2417 0.900806 24.0468 1.37772 24.0468 1.875V3.375C23.2213 3.5659 22.4332 3.89545 21.7152 4.35L20.6604 3.3C20.3064 2.99283 19.851 2.83231 19.3853 2.85054C18.9196 2.86877 18.4778 3.06439 18.1483 3.39832C17.8187 3.73225 17.6257 4.17988 17.6077 4.65177C17.5897 5.12367 17.7481 5.58506 18.0512 5.94375L19.0875 7.0125C18.921 7.29375 18.7914 7.6125 18.6434 7.9125L22.0297 9.46875C22.2319 8.98779 22.5206 8.54909 22.881 8.175C23.7089 7.39748 24.7961 6.96549 25.925 6.96549C27.0538 6.96549 28.141 7.39748 28.969 8.175C29.7626 9.00412 30.2064 10.1137 30.2064 11.2688C30.2064 12.418 29.767 13.5224 28.9808 14.3502L28.9875 14.3437L28.969 14.3625L28.9808 14.3502C28.6561 14.6582 28.2832 14.9095 27.8772 15.0938L29.1062 16.1587C29.3668 16.3846 29.5865 16.6536 29.7557 16.9541L30.8935 18.975L31.134 19.2C31.4787 19.5464 31.9439 19.7417 32.4294 19.7437C32.6729 19.7452 32.9143 19.6979 33.1398 19.6046C33.3652 19.5113 33.5703 19.3738 33.7432 19.2C34.0878 18.8487 34.2813 18.3735 34.2813 17.8781C34.2813 17.3828 34.0878 16.9076 33.7432 16.5562L32.7069 15.5063C33.1529 14.7706 33.4778 13.9663 33.6692 13.125H35.1495C35.6403 13.125 36.111 12.9275 36.458 12.5758C36.805 12.2242 37 11.7473 37 11.25C37 10.7527 36.805 10.2758 36.458 9.92418C36.111 9.57254 35.6403 9.375 35.1495 9.375Z" fill="#FFC643"/>
<path fill-rule="evenodd" clip-rule="evenodd" d="M28.969 14.3625L28.9808 14.3502L28.9875 14.3437L28.969 14.3625Z" fill="#FFC643"/>
<path d="M23.4361 26.25H6.46734C5.73118 26.25 5.02517 25.9537 4.50462 25.4262C3.98408 24.8988 3.69164 24.1834 3.69164 23.4375C3.69164 22.6916 3.98408 21.9762 4.50462 21.4488C5.02517 20.9213 5.73118 20.625 6.46734 20.625C6.95811 20.625 7.42879 20.4275 7.77581 20.0758C8.12284 19.7242 8.3178 19.2473 8.3178 18.75C8.32574 16.9794 8.95163 15.2688 10.0847 13.9209C11.2178 12.573 12.7849 11.6747 14.5088 11.3851C16.2327 11.0954 18.0021 11.4331 19.5039 12.3384C21.0057 13.2436 22.1429 14.658 22.7144 16.3312C22.8202 16.6534 23.0103 16.9405 23.2645 17.1617C23.5187 17.383 23.8275 17.5302 24.1578 17.5875C25.2081 17.7865 26.1481 18.3736 26.7955 19.2349C27.4429 20.0962 27.7516 21.1705 27.6617 22.2493C27.5718 23.3282 27.0898 24.3348 26.309 25.074C25.5283 25.8131 24.5045 26.2322 23.4361 26.25Z" fill="#FFC643"/>
<path d="M23.4361 26.25H6.46734C5.73118 26.25 5.02517 25.9537 4.50462 25.4262C3.98408 24.8988 3.69164 24.1834 3.69164 23.4375C3.69164 22.6916 3.98408 21.9762 4.50462 21.4488C5.02517 20.9213 5.73118 20.625 6.46734 20.625C6.95811 20.625 7.42879 20.4275 7.77581 20.0758C8.12284 19.7242 8.3178 19.2473 8.3178 18.75C8.32574 16.9794 8.95163 15.2688 10.0847 13.9209C11.2178 12.573 12.7849 11.6747 14.5088 11.3851C16.2327 11.0954 18.0021 11.4331 19.5039 12.3384C21.0057 13.2436 22.1429 14.658 22.7144 16.3312C22.8202 16.6534 23.0103 16.9405 23.2645 17.1617C23.5187 17.383 23.8275 17.5302 24.1578 17.5875C25.2081 17.7865 26.1481 18.3736 26.7955 19.2349C27.4429 20.0962 27.7516 21.1705 27.6617 22.2493C27.5718 23.3282 27.0898 24.3348 26.309 25.074C25.5283 25.8131 24.5045 26.2322 23.4361 26.25Z" fill="#BABABA"/>
<path fill-rule="evenodd" clip-rule="evenodd" d="M18.6434 7.9125C17.692 7.64037 16.7083 7.50158 15.7197 7.5C13.0529 7.49846 10.4746 8.46956 8.45635 10.2357C6.43806 12.0019 5.11459 14.4452 4.7279 17.1187C3.22198 17.5466 1.91974 18.5123 1.06169 19.8372C0.203653 21.1622 -0.15222 22.757 0.0598037 24.3271C0.271827 25.8973 1.03742 27.3366 2.21519 28.3793C3.39296 29.4221 4.90333 29.9977 6.46734 30H23.4361C25.5611 30 27.5992 29.1446 29.1018 27.6221C30.6044 26.0995 31.4486 24.0345 31.4486 21.8813C31.447 20.8856 31.2586 19.8994 30.8935 18.975L29.7557 16.9541C29.5865 16.6536 29.3668 16.3846 29.1062 16.1587L27.8772 15.0938C27.2618 14.6877 26.596 14.3662 25.8972 14.1375C25.047 12.2564 23.7107 10.6433 22.0297 9.46875L18.6434 7.9125ZM6.46734 26.25H23.4361C24.5045 26.2322 25.5283 25.8131 26.309 25.074C27.0898 24.3348 27.5718 23.3282 27.6617 22.2493C27.7516 21.1705 27.4429 20.0962 26.7955 19.2349C26.1481 18.3736 25.2081 17.7865 24.1578 17.5875C23.8275 17.5302 23.5187 17.383 23.2645 17.1617C23.0103 16.9405 22.8202 16.6534 22.7144 16.3312C22.1429 14.658 21.0057 13.2436 19.5039 12.3384C18.0021 11.4331 16.2327 11.0954 14.5088 11.3851C12.7849 11.6747 11.2178 12.573 10.0847 13.9209C8.95163 15.2688 8.32574 16.9794 8.3178 18.75C8.3178 19.2473 8.12284 19.7242 7.77581 20.0758C7.42879 20.4275 6.95811 20.625 6.46734 20.625C5.73118 20.625 5.02517 20.9213 4.50462 21.4488C3.98408 21.9762 3.69164 22.6916 3.69164 23.4375C3.69164 24.1834 3.98408 24.8988 4.50462 25.4262C5.02517 25.9537 5.73118 26.25 6.46734 26.25Z" fill="#FFC643"/>
<path fill-rule="evenodd" clip-rule="evenodd" d="M18.6434 7.9125C17.692 7.64037 16.7083 7.50158 15.7197 7.5C13.0529 7.49846 10.4746 8.46956 8.45635 10.2357C6.43806 12.0019 5.11459 14.4452 4.7279 17.1187C3.22198 17.5466 1.91974 18.5123 1.06169 19.8372C0.203653 21.1622 -0.15222 22.757 0.0598037 24.3271C0.271827 25.8973 1.03742 27.3366 2.21519 28.3793C3.39296 29.4221 4.90333 29.9977 6.46734 30H23.4361C25.5611 30 27.5992 29.1446 29.1018 27.6221C30.6044 26.0995 31.4486 24.0345 31.4486 21.8813C31.447 20.8856 31.2586 19.8994 30.8935 18.975L29.7557 16.9541C29.5865 16.6536 29.3668 16.3846 29.1062 16.1587L27.8772 15.0938C27.2618 14.6877 26.596 14.3662 25.8972 14.1375C25.047 12.2564 23.7107 10.6433 22.0297 9.46875L18.6434 7.9125ZM6.46734 26.25H23.4361C24.5045 26.2322 25.5283 25.8131 26.309 25.074C27.0898 24.3348 27.5718 23.3282 27.6617 22.2493C27.7516 21.1705 27.4429 20.0962 26.7955 19.2349C26.1481 18.3736 25.2081 17.7865 24.1578 17.5875C23.8275 17.5302 23.5187 17.383 23.2645 17.1617C23.0103 16.9405 22.8202 16.6534 22.7144 16.3312C22.1429 14.658 21.0057 13.2436 19.5039 12.3384C18.0021 11.4331 16.2327 11.0954 14.5088 11.3851C12.7849 11.6747 11.2178 12.573 10.0847 13.9209C8.95163 15.2688 8.32574 16.9794 8.3178 18.75C8.3178 19.2473 8.12284 19.7242 7.77581 20.0758C7.42879 20.4275 6.95811 20.625 6.46734 20.625C5.73118 20.625 5.02517 20.9213 4.50462 21.4488C3.98408 21.9762 3.69164 22.6916 3.69164 23.4375C3.69164 24.1834 3.98408 24.8988 4.50462 25.4262C5.02517 25.9537 5.73118 26.25 6.46734 26.25Z" fill="#BABABA"/>
<path d="M25.8972 14.1375C26.596 14.3662 27.2618 14.6877 27.8772 15.0938C28.2832 14.9095 28.6561 14.6582 28.9808 14.3502C29.767 13.5224 30.2064 12.418 30.2064 11.2688C30.2064 10.1137 29.7626 9.00412 28.969 8.175C28.141 7.39748 27.0538 6.96549 25.925 6.96549C24.7961 6.96549 23.7089 7.39748 22.881 8.175C22.5206 8.54909 22.2319 8.98779 22.0297 9.46875C23.7107 10.6433 25.047 12.2564 25.8972 14.1375Z" fill="#FFC643"/>
</svg>
